<svg xmlns="http://www.w3.org/2000/svg" xmlns:xlink="http://www.w3.org/1999/xlink" width="500" zoomAndPan="magnify" viewBox="0 0 375 93.749996" height="125" preserveAspectRatio="xMidYMid meet" version="1.0"><defs><g/></defs><g fill="#2c74b3" fill-opacity="1"><g transform="translate(0.527897, 72.801363)"><g><path d="M 41.0625 -53.984375 L 41.0625 -19.4375 C 41.0625 -16.289062 40.578125 -13.445312 39.609375 -10.90625 C 38.648438 -8.363281 37.242188 -6.195312 35.390625 -4.40625 C 33.535156 -2.613281 31.265625 -1.234375 28.578125 -0.265625 C 25.890625 0.691406 22.816406 1.171875 19.359375 1.171875 C 15.878906 1.171875 12.875 0.722656 10.34375 -0.171875 C 7.8125 -1.066406 5.375 -2.304688 3.03125 -3.890625 L 7.90625 -11.765625 C 9.75 -10.492188 11.472656 -9.601562 13.078125 -9.09375 C 14.691406 -8.59375 16.523438 -8.34375 18.578125 -8.34375 C 21.359375 -8.34375 23.675781 -9.226562 25.53125 -11 C 27.382812 -12.78125 28.3125 -15.539062 28.3125 -19.28125 L 28.3125 -44.640625 L 11.71875 -44.640625 L 11.71875 -53.984375 Z M 41.0625 -53.984375 "/></g></g></g><g fill="#2c74b3" fill-opacity="1"><g transform="translate(47.273444, 72.801363)"><g><path d="M 40.28125 -11.921875 C 40.28125 -10.359375 40.492188 -9.226562 40.921875 -8.53125 C 41.347656 -7.832031 42.039062 -7.300781 43 -6.9375 L 40.46875 1.171875 C 38.03125 0.929688 35.972656 0.390625 34.296875 -0.453125 C 32.617188 -1.296875 31.300781 -2.570312 30.34375 -4.28125 C 28.757812 -2.382812 26.734375 -0.972656 24.265625 -0.046875 C 21.796875 0.867188 19.273438 1.328125 16.703125 1.328125 C 12.453125 1.328125 9.0625 0.113281 6.53125 -2.3125 C 4 -4.738281 2.734375 -7.863281 2.734375 -11.6875 C 2.734375 -16.175781 4.488281 -19.640625 8 -22.078125 C 11.519531 -24.523438 16.472656 -25.75 22.859375 -25.75 L 28.4375 -25.75 L 28.4375 -27.3125 C 28.4375 -29.46875 27.738281 -31.0625 26.34375 -32.09375 C 24.957031 -33.132812 22.925781 -33.65625 20.25 -33.65625 C 18.925781 -33.65625 17.222656 -33.46875 15.140625 -33.09375 C 13.066406 -32.71875 10.992188 -32.175781 8.921875 -31.46875 L 6.078125 -39.65625 C 8.753906 -40.664062 11.539062 -41.429688 14.4375 -41.953125 C 17.332031 -42.472656 19.921875 -42.734375 22.203125 -42.734375 C 28.359375 -42.734375 32.910156 -41.476562 35.859375 -38.96875 C 38.804688 -36.46875 40.28125 -32.851562 40.28125 -28.125 Z M 20.953125 -7.484375 C 22.273438 -7.484375 23.664062 -7.878906 25.125 -8.671875 C 26.582031 -9.460938 27.6875 -10.582031 28.4375 -12.03125 L 28.4375 -18.734375 L 25.390625 -18.734375 C 21.960938 -18.734375 19.441406 -18.207031 17.828125 -17.15625 C 16.222656 -16.101562 15.421875 -14.566406 15.421875 -12.546875 C 15.421875 -10.960938 15.90625 -9.722656 16.875 -8.828125 C 17.851562 -7.929688 19.210938 -7.484375 20.953125 -7.484375 Z M 20.953125 -7.484375 "/></g></g></g><g fill="#2c74b3" fill-opacity="1"><g transform="translate(94.01899, 72.801363)"><g><path d="M 5.453125 0 L 5.453125 -41.375 L 16.203125 -41.375 L 17.0625 -36.578125 C 18.90625 -38.648438 20.851562 -40.191406 22.90625 -41.203125 C 24.957031 -42.222656 27.296875 -42.734375 29.921875 -42.734375 C 33.453125 -42.734375 36.226562 -41.65625 38.25 -39.5 C 40.28125 -37.34375 41.296875 -34.304688 41.296875 -30.390625 L 41.296875 0 L 28.984375 0 L 28.984375 -26.84375 C 28.984375 -28.53125 28.863281 -29.875 28.625 -30.875 C 28.394531 -31.875 27.988281 -32.585938 27.40625 -33.015625 C 26.820312 -33.441406 26.023438 -33.65625 25.015625 -33.65625 C 24.148438 -33.65625 23.304688 -33.46875 22.484375 -33.09375 C 21.671875 -32.71875 20.875 -32.175781 20.09375 -31.46875 C 19.320312 -30.769531 18.546875 -29.925781 17.765625 -28.9375 L 17.765625 0 Z M 5.453125 0 "/></g></g></g><g fill="#2c74b3" fill-opacity="1"><g transform="translate(140.764537, 72.801363)"><g><path d="M 16.125 -17.09375 C 16.414062 -14.84375 17.007812 -13.019531 17.90625 -11.625 C 18.800781 -10.238281 19.945312 -9.226562 21.34375 -8.59375 C 22.75 -7.957031 24.320312 -7.640625 26.0625 -7.640625 C 27.957031 -7.640625 29.785156 -7.945312 31.546875 -8.5625 C 33.316406 -9.1875 35.019531 -10.019531 36.65625 -11.0625 L 41.609375 -4.359375 C 39.660156 -2.703125 37.300781 -1.335938 34.53125 -0.265625 C 31.769531 0.796875 28.617188 1.328125 25.078125 1.328125 C 20.359375 1.328125 16.398438 0.382812 13.203125 -1.5 C 10.003906 -3.382812 7.597656 -5.972656 5.984375 -9.265625 C 4.378906 -12.566406 3.578125 -16.359375 3.578125 -20.640625 C 3.578125 -24.722656 4.359375 -28.429688 5.921875 -31.765625 C 7.484375 -35.097656 9.757812 -37.757812 12.75 -39.75 C 15.75 -41.738281 19.421875 -42.734375 23.765625 -42.734375 C 27.710938 -42.734375 31.132812 -41.890625 34.03125 -40.203125 C 36.925781 -38.515625 39.171875 -36.082031 40.765625 -32.90625 C 42.359375 -29.738281 43.15625 -25.9375 43.15625 -21.5 C 43.15625 -20.800781 43.132812 -20.046875 43.09375 -19.234375 C 43.0625 -18.429688 43.003906 -17.71875 42.921875 -17.09375 Z M 23.765625 -34.46875 C 21.554688 -34.46875 19.773438 -33.675781 18.421875 -32.09375 C 17.078125 -30.507812 16.257812 -27.976562 15.96875 -24.5 L 31.15625 -24.5 C 31.132812 -27.507812 30.550781 -29.921875 29.40625 -31.734375 C 28.269531 -33.554688 26.390625 -34.46875 23.765625 -34.46875 Z M 23.765625 -34.46875 "/></g></g></g><g fill="#5271ff" fill-opacity="1"><g transform="translate(187.505836, 72.801363)"><g/></g></g><g fill="#ffffff" fill-opacity="1"><g transform="translate(234.244481, 72.801363)"><g><path d="M 31.515625 -27.265625 C 31.515625 -30.898438 31.207031 -33.859375 30.59375 -36.140625 C 29.988281 -38.429688 29.144531 -40.195312 28.0625 -41.4375 C 26.988281 -42.6875 25.722656 -43.546875 24.265625 -44.015625 C 22.816406 -44.484375 21.242188 -44.71875 19.546875 -44.71875 L 16.828125 -44.71875 L 16.828125 -9.234375 L 19.546875 -9.234375 C 21.316406 -9.234375 22.9375 -9.507812 24.40625 -10.0625 C 25.875 -10.625 27.140625 -11.570312 28.203125 -12.90625 C 29.265625 -14.25 30.082031 -16.085938 30.65625 -18.421875 C 31.226562 -20.765625 31.515625 -23.710938 31.515625 -27.265625 Z M 44.75 -27.265625 C 44.75 -21.785156 44.03125 -17.265625 42.59375 -13.703125 C 41.15625 -10.148438 39.203125 -7.378906 36.734375 -5.390625 C 34.265625 -3.410156 31.460938 -2.015625 28.328125 -1.203125 C 25.203125 -0.398438 21.96875 0 18.625 0 L 4.046875 0 L 4.046875 -53.984375 L 17.6875 -53.984375 C 21.132812 -53.984375 24.472656 -53.625 27.703125 -52.90625 C 30.941406 -52.195312 33.835938 -50.890625 36.390625 -48.984375 C 38.953125 -47.078125 40.984375 -44.375 42.484375 -40.875 C 43.992188 -37.382812 44.75 -32.847656 44.75 -27.265625 Z M 44.75 -27.265625 "/></g></g></g><g fill="#ffffff" fill-opacity="1"><g transform="translate(280.990027, 72.801363)"><g><path d="M 23.375 -42.734375 C 27.632812 -42.734375 31.253906 -41.820312 34.234375 -40 C 37.222656 -38.1875 39.507812 -35.632812 41.09375 -32.34375 C 42.675781 -29.0625 43.46875 -25.210938 43.46875 -20.796875 C 43.46875 -16.203125 42.671875 -12.25 41.078125 -8.9375 C 39.484375 -5.625 37.191406 -3.082031 34.203125 -1.3125 C 31.210938 0.445312 27.601562 1.328125 23.375 1.328125 C 19.164062 1.328125 15.5625 0.457031 12.5625 -1.28125 C 9.5625 -3.019531 7.257812 -5.539062 5.65625 -8.84375 C 4.0625 -12.144531 3.265625 -16.101562 3.265625 -20.71875 C 3.265625 -25.113281 4.0625 -28.957031 5.65625 -32.25 C 7.257812 -35.550781 9.5625 -38.125 12.5625 -39.96875 C 15.5625 -41.8125 19.164062 -42.734375 23.375 -42.734375 Z M 23.375 -33.65625 C 20.851562 -33.65625 18.988281 -32.625 17.78125 -30.5625 C 16.570312 -28.5 15.96875 -25.21875 15.96875 -20.71875 C 15.96875 -16.15625 16.570312 -12.847656 17.78125 -10.796875 C 18.988281 -8.742188 20.851562 -7.71875 23.375 -7.71875 C 25.894531 -7.71875 27.753906 -8.742188 28.953125 -10.796875 C 30.160156 -12.847656 30.765625 -16.179688 30.765625 -20.796875 C 30.765625 -25.265625 30.160156 -28.523438 28.953125 -30.578125 C 27.753906 -32.628906 25.894531 -33.65625 23.375 -33.65625 Z M 23.375 -33.65625 "/></g></g></g><g fill="#ffffff" fill-opacity="1"><g transform="translate(327.735574, 72.801363)"><g><path d="M 16.125 -17.09375 C 16.414062 -14.84375 17.007812 -13.019531 17.90625 -11.625 C 18.800781 -10.238281 19.945312 -9.226562 21.34375 -8.59375 C 22.75 -7.957031 24.320312 -7.640625 26.0625 -7.640625 C 27.957031 -7.640625 29.785156 -7.945312 31.546875 -8.5625 C 33.316406 -9.1875 35.019531 -10.019531 36.65625 -11.0625 L 41.609375 -4.359375 C 39.660156 -2.703125 37.300781 -1.335938 34.53125 -0.265625 C 31.769531 0.796875 28.617188 1.328125 25.078125 1.328125 C 20.359375 1.328125 16.398438 0.382812 13.203125 -1.5 C 10.003906 -3.382812 7.597656 -5.972656 5.984375 -9.265625 C 4.378906 -12.566406 3.578125 -16.359375 3.578125 -20.640625 C 3.578125 -24.722656 4.359375 -28.429688 5.921875 -31.765625 C 7.484375 -35.097656 9.757812 -37.757812 12.75 -39.75 C 15.75 -41.738281 19.421875 -42.734375 23.765625 -42.734375 C 27.710938 -42.734375 31.132812 -41.890625 34.03125 -40.203125 C 36.925781 -38.515625 39.171875 -36.082031 40.765625 -32.90625 C 42.359375 -29.738281 43.15625 -25.9375 43.15625 -21.5 C 43.15625 -20.800781 43.132812 -20.046875 43.09375 -19.234375 C 43.0625 -18.429688 43.003906 -17.71875 42.921875 -17.09375 Z M 23.765625 -34.46875 C 21.554688 -34.46875 19.773438 -33.675781 18.421875 -32.09375 C 17.078125 -30.507812 16.257812 -27.976562 15.96875 -24.5 L 31.15625 -24.5 C 31.132812 -27.507812 30.550781 -29.921875 29.40625 -31.734375 C 28.269531 -33.554688 26.390625 -34.46875 23.765625 -34.46875 Z M 23.765625 -34.46875 "/></g></g></g></svg>